<?xml version="1.0" standalone="no"?>
<!DOCTYPE svg PUBLIC "-//W3C//DTD SVG 20010904//EN"
 "http://www.w3.org/TR/2001/REC-SVG-20010904/DTD/svg10.dtd">
<svg version="1.0" xmlns="http://www.w3.org/2000/svg"
 width="1199.000000pt" height="1280.000000pt" viewBox="0 0 1199.000000 1280.000000"
 preserveAspectRatio="xMidYMid meet">
<metadata>
Created by potrace 1.15, written by Peter Selinger 2001-2017
</metadata>
<g transform="translate(0.000000,1280.000000) scale(0.100000,-0.100000)"
fill="#ff9800" stroke="none">
<path d="M6835 12720 c-176 -42 -624 -151 -995 -240 -371 -89 -916 -220 -1210
-291 -294 -71 -751 -181 -1015 -245 -264 -63 -750 -180 -1080 -260 -330 -79
-841 -202 -1135 -273 -294 -71 -726 -175 -960 -231 -234 -56 -428 -105 -433
-109 -4 -4 20 -606 53 -1337 109 -2416 139 -3075 205 -4529 35 -792 67 -1498
71 -1568 l7 -128 986 -812 c542 -446 1393 -1147 1891 -1556 498 -410 1002
-829 1120 -930 118 -101 222 -191 232 -198 14 -13 62 2 400 120 210 75 482
167 603 205 121 39 561 179 978 311 416 133 1097 349 1512 481 1541 490 2284
726 2805 891 294 94 627 200 740 236 113 36 209 69 214 73 5 5 15 267 22 582
31 1353 35 1544 44 1948 6 234 19 826 30 1315 19 870 25 1121 55 2410 8 347
15 824 15 1060 l0 430 -238 134 c-346 196 -2653 1502 -4112 2328 -255 145
-469 263 -475 262 -5 0 -154 -36 -330 -79z m-307 -2492 l-3 -1132 -110 -28
c-60 -15 -243 -62 -405 -104 -162 -41 -373 -95 -467 -120 -425 -109 -527 -135
-661 -169 l-142 -36 -1210 847 c-666 466 -1207 851 -1203 855 5 3 283 73 618
154 545 131 1369 331 2560 620 220 53 510 123 645 156 135 32 270 66 300 73
30 8 61 15 68 15 10 1 12 -228 10 -1131z m2104 300 c497 -292 933 -549 970
-571 37 -21 70 -42 72 -46 3 -3 -300 -85 -672 -180 -372 -96 -813 -209 -979
-251 l-303 -78 0 829 c0 456 2 829 5 829 3 0 411 -239 907 -532z m-5985 -2114
l1283 -895 0 -75 c0 -76 31 -1188 50 -1798 6 -181 9 -330 7 -332 -2 -2 -354
-99 -783 -215 -1259 -340 -1554 -420 -1641 -443 l-81 -22 -6 100 c-3 56 -26
778 -51 1606 -25 828 -50 1638 -55 1800 -5 162 -14 462 -20 665 -5 204 -12
403 -15 444 -4 65 -3 72 12 67 9 -4 594 -410 1300 -902z m8094 -336 c-7 -452
-16 -1138 -21 -1523 -5 -385 -15 -1127 -21 -1650 -6 -522 -13 -952 -15 -954
-2 -2 -670 440 -1484 982 l-1480 987 2 1071 3 1072 150 42 c83 24 256 72 385
108 129 36 462 129 740 207 278 78 708 197 955 267 248 69 527 147 620 173 94
26 171 47 173 45 2 -2 -1 -374 -7 -827z m-4211 -1213 c0 -684 -3 -866 -12
-870 -7 -2 -105 -28 -218 -59 -113 -30 -382 -102 -598 -161 -217 -59 -396
-104 -400 -100 -8 8 -51 1688 -43 1697 3 3 112 36 241 71 276 77 736 206 900
252 63 18 118 33 123 34 4 0 7 -388 7 -864z m1523 -2642 c1085 -786 1620
-1173 1700 -1231 27 -19 45 -38 40 -42 -4 -5 -66 -26 -138 -48 -71 -22 -350
-109 -620 -192 -269 -84 -647 -201 -840 -260 -344 -106 -712 -220 -2130 -659
-390 -121 -711 -218 -714 -216 -4 5 -42 2897 -38 2902 4 4 283 86 792 233 231
67 524 152 650 190 127 38 238 69 248 69 10 1 483 -335 1050 -746z m-4019
-570 c3 -247 11 -686 17 -977 5 -291 8 -531 5 -533 -3 -3 -305 235 -673 528
-367 293 -775 618 -906 722 -131 104 -237 191 -235 192 3 3 281 84 1008 295
212 62 466 136 565 165 99 30 187 54 196 54 14 1 17 -47 23 -446z"/>
</g>
</svg>
